<svg xmlns="http://www.w3.org/2000/svg" width="264.75" height="56.391" viewBox="0 0 264.75 56.391"><path d="M4.113 40.175v10.248c0 1.711.557 4.134 3.573 4.134 2.761 0 3.759-1.909 3.759-4.329l-.046-10.053c0-.562-.278-.906-.626-1.104h2.691c-.348.197-.604.541-.604 1.104l-.069 10.003c0 4.157-2.344 5.772-5.499 5.772-2.715 0-6.172-1.271-6.172-5.602V40.175c0-.562-.372-.906-.743-1.104h4.455c-.371.198-.719.541-.719 1.104zm39.213 0c0-.562-.232-.906-.603-1.104h2.576c-.349.197-.604.541-.604 1.104v16.216s-11.137-13.843-11.137-14.04v12.254c0 .538.255.881.649 1.101h-2.576c.348-.22.604-.562.604-1.101V41.544c0-.955.023-.979-.417-1.542a3.884 3.884 0 0 0-1.044-.931h3.991l8.562 10.764v-9.66zm24.641-1.104c-.395.197-.604.541-.604 1.104v14.43c0 .538.208.881.604 1.101h-4.2c.371-.22.603-.562.603-1.101v-14.43c0-.562-.232-.906-.603-1.104h4.2zm28.284 1.225c.209-.636.116-.979-.487-1.225h2.831c-.604.418-.649.589-.882 1.176-.395.953-5.986 15.973-5.986 15.973s-6.056-15.068-6.497-15.973c-.278-.49-.557-.881-1.253-1.176h5.128c-.604.246-.65.76-.488 1.348.047.219 3.922 10.273 3.922 10.273s3.69-10.224 3.712-10.396zm28.168.93c-.44-.637-.928-.832-1.81-.881-.696-.049-3.944-.049-3.944-.049v5.627h3.503c.325 0 .719-.393.835-.686v2.592c-.116-.342-.51-.709-.835-.709h-3.503v7.191c.464.072 1.879.172 3.016.122 2.019-.05 2.947 0 3.806-1.541L125 55.705h-9.977c.395-.245.696-.513.696-1.101v-14.43c0-.562-.325-.906-.696-1.104h9.328l.068 2.156zm25.431 6.041c1.578.171 2.273 1.296 2.621 1.836 0 0 2.785 4.646 3.598 5.625.439.586 1.484.978 1.484.978l-3.018.05c-.881 0-1.646-.562-2.064-1.15-1.043-1.541-2.064-3.326-2.9-4.695-.604-.979-1.137-2.031-2.135-2.031-.278 0-1.021.05-1.021.05v6.677c0 .538.256.881.65 1.101h-4.199c.371-.22.604-.562.604-1.101v-14.43c0-.562-.232-.906-.604-1.104h5.012c4.803 0 5.893 2.473 5.893 4.111-.001 2.639-2.274 3.96-3.921 4.083zm-3.435-6.971v6.384s.65.05 1.045.05c1.578 0 3.249-.93 3.249-3.4 0-1.125-.65-3.082-2.946-3.082a19.948 19.948 0 0 0-1.348.048zm36.592 10.517c0 3.058-2.552 5.137-5.405 5.137-2.113 0-3.643-.758-4.455-1.174l-.115-4.135c.439 1.738 1.832 4.037 4.244 4.037 2.298 0 2.994-1.736 2.994-2.935 0-2.349-2.018-2.667-4.131-3.866-2.135-1.246-3.062-2.567-3.062-4.428 0-3.326 2.947-4.646 5.059-4.646.789 0 2.32.172 3.503.905l.116 3.62c-.324-1.297-1.646-3.254-3.875-3.254-1.763 0-2.459 1.297-2.459 2.35 0 1.49.997 2.053 3.18 3.105 2.156 1.077 4.406 1.886 4.406 5.284zm22.322-11.742c-.395.197-.604.541-.604 1.104v14.43c0 .538.209.881.604 1.101h-4.199c.37-.22.604-.562.604-1.101v-14.43c0-.562-.233-.906-.604-1.104h4.199zm25.199 1.225v14.309c0 .538.256.881.604 1.101h-4.154c.371-.22.604-.562.604-1.101V40.296c-1.717 0-3.713.172-3.713.172-.557 0-.951.562-1.16.977v-2.373h12.717v2.373c-.21-.414-.535-.928-1.092-.977-.001 0-2.113-.172-3.806-.172zm34.222-1.225c-.721.246-1.254.931-1.532 1.493L259.506 48v6.604c0 .538.439.881.812 1.101h-4.641c.349-.22.789-.513.789-1.101v-6.506l-4.548-7.852c-.326-.587-.58-.832-1.206-1.176h5.243c-.58.246-.975.368-.371 1.518l3.271 6.018 3.063-6.311c.325-.539.161-1.052-.487-1.225h3.319zM18.403.713h5.447c-.516.271-.838.748-.838 1.528v20.043c0 .747.322 1.223.838 1.528h-5.769c.516-.306.838-.781.838-1.528V5.198c0-.408.065-.781.065-.781l-.291.781-7.735 19.091-7.8-18.548-.225-.917v17.461c0 .747.355 1.223.902 1.528H.257c.484-.306.838-.781.838-1.528V2.242C1.095 1.597.579.985.063.714h5.672l6.446 15.592L18.403.713zm16.498 0c-.548.271-.838.748-.838 1.528v20.043c0 .747.29 1.223.838 1.528h-5.834c.516-.306.838-.781.838-1.528V2.242c0-.781-.322-1.257-.838-1.528h5.834zM59.62 7.372c-1.966-4.722-5.737-5.197-7.284-5.197-5.511 0-8.638 4.246-8.638 9.715 0 4.654 2.224 10.395 8.863 10.395 1.515 0 5.157-.544 7.284-5.198.064-.135-.29 4.892-.29 4.892-2.676 1.597-5.544 2.174-8.187 2.174-6.349 0-11.99-4.586-11.99-11.822C39.378 6.386 43.568.34 51.754.34c2.643 0 5.06.543 7.574 1.767.002-.001.356 5.4.292 5.265zM78.503.713h5.833c-.548.271-.902.748-.902 1.528v20.043c0 .747.354 1.223.902 1.528h-5.833c.516-.306.838-.781.838-1.528V11.89H69.318v10.395c0 .747.29 1.223.838 1.528h-5.833c.516-.306.838-.781.838-1.528V2.242c0-.781-.322-1.257-.838-1.528h5.833c-.548.271-.838.748-.838 1.528v7.984h10.023V2.242c0-.781-.321-1.257-.838-1.529zm16.854 0c-.548.271-.838.748-.838 1.528v20.043c0 .747.291 1.223.838 1.528h-5.834c.516-.306.838-.781.838-1.528V2.242c0-.781-.322-1.257-.838-1.528h5.834zm24.525 1.393l.226 5.401c-1.644-4.62-5.737-5.333-7.252-5.333-5.479 0-8.637 4.246-8.637 9.715 0 4.654 2.191 10.395 8.863 10.395.677 0 2.579-.068 4.093-1.122v-5.91c0-.782-.322-1.257-.838-1.563h5.769c-.483.306-.837.781-.837 1.563v5.027c0 .679.354 1.291.515 1.393-2.708 1.597-7.284 2.48-9.862 2.48-6.414 0-12.085-4.586-12.085-11.822 0-5.945 4.222-11.991 12.472-11.991 2.642.001 5.027.612 7.573 1.767zm23.525 20.042c.322.713.547 1.087 1.611 1.665h-6.896c.837-.476.998-.951.773-1.665-.098-.34-.936-2.412-1.838-4.722h-7.896c-.967 2.31-1.74 4.314-1.805 4.688-.29.815-.128 1.291.742 1.699h-4.447c.902-.646 1.192-1.019 1.515-1.665C125.777 20.857 134.254 0 134.254 0s8.573 20.857 9.153 22.148zm-7.09-6.488c-1.516-3.771-3.287-8.322-3.287-8.322s-2.192 5.774-3.224 8.322h6.511zm26.941-13.418c0-.781-.323-1.257-.838-1.528h3.576c-.482.271-.837.748-.837 1.528v22.522S149.688 5.537 149.688 5.265v17.02c0 .747.354 1.223.903 1.528h-3.578c.484-.306.838-.781.838-1.528V4.145c0-1.325.033-1.359-.58-2.14A5.303 5.303 0 0 0 145.82.714h5.545l11.893 14.947V2.242zm29.162 14.777c0 4.246-3.543 7.134-7.51 7.134-2.932 0-5.059-1.053-6.188-1.631l-.16-5.741c.612 2.412 2.546 5.605 5.898 5.605 3.189 0 4.157-2.412 4.157-4.076 0-3.261-2.804-3.703-5.737-5.368-2.965-1.732-4.254-3.566-4.254-6.148 0-4.62 4.094-6.454 7.025-6.454 1.096 0 3.225.238 4.867 1.257l.16 5.027c-.449-1.8-2.287-4.518-5.381-4.518-2.449 0-3.417 1.8-3.417 3.261 0 2.073 1.386 2.854 4.416 4.314 2.999 1.495 6.124 2.616 6.124 7.338zm12.863-14.606v19.872c0 .747.354 1.223.839 1.528h-5.77c.515-.306.838-.781.838-1.528V2.413c-2.385 0-5.158.237-5.158.237-.773 0-1.322.781-1.611 1.358V.713h17.663v3.295c-.291-.577-.741-1.291-1.515-1.358 0 0-2.934-.237-5.286-.237zm23.588 19.735c.323.713.548 1.087 1.612 1.665h-6.896c.837-.476.998-.951.773-1.665-.098-.34-.936-2.412-1.838-4.722h-7.896c-.967 2.31-1.74 4.314-1.805 4.688-.291.815-.129 1.291.742 1.699h-4.449c.902-.646 1.192-1.019 1.516-1.665C211.242 20.857 219.717 0 219.717 0s8.574 20.857 9.154 22.148zm-7.091-6.488c-1.514-3.771-3.287-8.322-3.287-8.322s-2.19 5.774-3.223 8.322h6.51zm17.117-13.247v19.872c0 .747.354 1.223.837 1.528h-5.769c.516-.306.838-.781.838-1.528V2.413c-2.385 0-5.156.237-5.156.237-.773 0-1.322.781-1.612 1.358V.713h17.661v3.295c-.289-.577-.74-1.291-1.514-1.358 0 0-2.933-.237-5.285-.237zm23.33 1.29c-.611-.883-1.287-1.155-2.514-1.224-.967-.067-5.479-.067-5.479-.067v7.813h4.867c.45 0 .998-.544 1.16-.952v3.601c-.162-.476-.71-.985-1.16-.985h-4.867v9.987c.645.102 2.61.238 4.189.17 2.805-.068 4.094 0 5.286-2.14l-.677 3.907h-13.858c.548-.34.967-.713.967-1.528V2.242c0-.781-.452-1.257-.967-1.528h12.956l.097 2.989zM0 29.805h264.266v1.786H0z" fill="#18453B"/></svg>